2014029_C5_05_grf
version=1
nRows=34
nColumns=19
inDegrees=no
endheader
time	ground_force_1_vx	ground_force_1_vy	ground_force_1_vz	ground_force_1_px	ground_force_1_py	ground_force_1_pz	ground_force_1_mx	ground_force_1_my	ground_force_1_mz	ground_force_2_vx	ground_force_2_vy	ground_force_2_vz	ground_force_2_px	ground_force_2_py	ground_force_2_pz	ground_force_2_mx	ground_force_2_my	ground_force_2_mz
      0.43000000	      0.00000000	      0.00000000	      0.00000000	      0.00000000	      0.00000000	      0.00000000	      0.00000000	      0.00000000	      0.00000000	    -29.13188934	    751.43106282	    -26.63669586	     -0.81967050	     -0.00200000	      0.28971177	      0.00000000	      1.54700416	      0.00000000
      0.43100000	      0.00000000	      0.00000000	      0.00000000	      0.00000000	      0.00000000	      0.00000000	      0.00000000	      0.00000000	      0.00000000	    -28.56194507	    753.10558081	    -26.82896852	     -0.81938413	     -0.00200000	      0.28972516	      0.00000000	      1.52786091	      0.00000000
      0.43200000	      0.00000000	      0.00000000	      0.00000000	      0.00000000	      0.00000000	      0.00000000	      0.00000000	      0.00000000	      0.00000000	    -27.98715420	    754.80274856	    -27.02192664	     -0.81910053	     -0.00200000	      0.28973764	      0.00000000	      1.50903950	      0.00000000
      0.43300000	      0.00000000	      0.00000000	      0.00000000	      0.00000000	      0.00000000	      0.00000000	      0.00000000	      0.00000000	      0.00000000	    -27.40623709	    756.52848929	    -27.21520960	     -0.81882042	     -0.00200000	      0.28974889	      0.00000000	      1.49070386	      0.00000000
      0.43400000	      0.00000000	      0.00000000	      0.00000000	      0.00000000	      0.00000000	      0.00000000	      0.00000000	      0.00000000	      0.00000000	    -26.82035603	    758.27710330	    -27.40833461	     -0.81854311	     -0.00200000	      0.28975911	      0.00000000	      1.47282348	      0.00000000
      0.43500000	      0.00000000	      0.00000000	      0.00000000	      0.00000000	      0.00000000	      0.00000000	      0.00000000	      0.00000000	      0.00000000	    -26.22817550	    760.05443931	    -27.60075927	     -0.81826933	     -0.00200000	      0.28976798	      0.00000000	      1.45559250	      0.00000000
      0.43600000	      0.00000000	      0.00000000	      0.00000000	      0.00000000	      0.00000000	      0.00000000	      0.00000000	      0.00000000	      0.00000000	    -25.63087270	    761.85472310	    -27.79222727	     -0.81799840	     -0.00200000	      0.28977574	      0.00000000	      1.43894396	      0.00000000
      0.43700000	      0.00000000	      0.00000000	      0.00000000	      0.00000000	      0.00000000	      0.00000000	      0.00000000	      0.00000000	      0.00000000	    -25.02705064	    763.68376613	    -27.98202038	     -0.81773105	     -0.00200000	      0.28978202	      0.00000000	      1.42309875	      0.00000000
      0.43800000	      0.00000000	      0.00000000	      0.00000000	      0.00000000	      0.00000000	      0.00000000	      0.00000000	      0.00000000	      0.00000000	    -24.41790514	    765.53575695	    -28.17010283	     -0.81746659	     -0.00200000	      0.28978709	      0.00000000	      1.40795511	      0.00000000
      0.43900000	      0.00000000	      0.00000000	      0.00000000	      0.00000000	      0.00000000	      0.00000000	      0.00000000	      0.00000000	      0.00000000	    -23.80195912	    767.41635799	    -28.35560441	     -0.81720575	     -0.00200000	      0.28979060	      0.00000000	      1.39375840	      0.00000000
      0.44000000	      0.00000000	      0.00000000	      0.00000000	      0.00000000	      0.00000000	      0.00000000	      0.00000000	      0.00000000	      0.00000000	    -23.18044193	    769.31983232	    -28.53870094	     -0.81694783	     -0.00200000	      0.28979281	      0.00000000	      1.38037106	      0.00000000
      0.44100000	      0.00000000	      0.00000000	      0.00000000	      0.00000000	      0.00000000	      0.00000000	      0.00000000	      0.00000000	      0.00000000	    -22.55178243	    771.25202864	    -28.71838957	     -0.81669354	     -0.00200000	      0.28979335	      0.00000000	      1.36805551	      0.00000000
      0.44200000	      0.00000000	      0.00000000	      0.00000000	      0.00000000	      0.00000000	      0.00000000	      0.00000000	      0.00000000	      0.00000000	    -21.91725746	    773.20702374	    -28.89504731	     -0.81644217	     -0.00200000	      0.28979252	      0.00000000	      1.35664397	      0.00000000
      0.44300000	      0.00000000	      0.00000000	      0.00000000	      0.00000000	      0.00000000	      0.00000000	      0.00000000	      0.00000000	      0.00000000	    -21.27519995	    775.19077808	    -29.06756550	     -0.81619444	     -0.00200000	      0.28978990	      0.00000000	      1.34641576	      0.00000000
      0.44400000	      0.00000000	      0.00000000	      0.00000000	      0.00000000	      0.00000000	      0.00000000	      0.00000000	      0.00000000	      0.00000000	    -20.62695473	    777.19748020	    -29.23651636	     -0.81594963	     -0.00200000	      0.28978584	      0.00000000	      1.33717655	      0.00000000
      0.44500000	      0.00000000	      0.00000000	      0.00000000	      0.00000000	      0.00000000	      0.00000000	      0.00000000	      0.00000000	      0.00000000	    -19.97075975	    779.23294157	    -29.40071374	     -0.81570847	     -0.00200000	      0.28977991	      0.00000000	      1.32921949	      0.00000000
      0.44600000	      0.00000000	      0.00000000	      0.00000000	      0.00000000	      0.00000000	      0.00000000	      0.00000000	      0.00000000	      0.00000000	    -19.30803247	    781.29157424	    -29.56089675	     -0.81547020	     -0.00200000	      0.28977247	      0.00000000	      1.32232248	      0.00000000
      0.44700000	      0.00000000	      0.00000000	      0.00000000	      0.00000000	      0.00000000	      0.00000000	      0.00000000	      0.00000000	      0.00000000	    -18.63692887	    783.37918967	    -29.71581519	     -0.81523553	     -0.00200000	      0.28976311	      0.00000000	      1.31678802	      0.00000000
      0.44800000	      0.00000000	      0.00000000	      0.00000000	      0.00000000	      0.00000000	      0.00000000	      0.00000000	      0.00000000	      0.00000000	    -17.95895956	    785.49019992	    -29.86634374	     -0.81500374	     -0.00200000	      0.28975219	      0.00000000	      1.31237045	      0.00000000
      0.44900000	      0.00000000	      0.00000000	      0.00000000	      0.00000000	      0.00000000	      0.00000000	      0.00000000	      0.00000000	      0.00000000	    -17.27220230	    787.63045371	    -30.01118302	     -0.81477550	     -0.00200000	      0.28973933	      0.00000000	      1.30937660	      0.00000000
      0.45000000	      0.00000000	      0.00000000	      0.00000000	      0.00000000	      0.00000000	      0.00000000	      0.00000000	      0.00000000	      0.00000000	    -16.57826267	    789.79432583	    -30.15133142	     -0.81455008	     -0.00200000	      0.28972489	      0.00000000	      1.30753992	      0.00000000
      0.45100000	      0.00000000	      0.00000000	      0.00000000	      0.00000000	      0.00000000	      0.00000000	      0.00000000	      0.00000000	      0.00000000	    -15.87515976	    791.98773950	    -30.28548062	     -0.81432816	     -0.00200000	      0.28970850	      0.00000000	      1.30716754	      0.00000000
      0.45200000	      0.00000000	      0.00000000	      0.00000000	      0.00000000	      0.00000000	      0.00000000	      0.00000000	      0.00000000	      0.00000000	    -15.16458765	    794.20499504	    -30.41473329	     -0.81410900	     -0.00200000	      0.28969055	      0.00000000	      1.30797385	      0.00000000
      0.45300000	      0.00000000	      0.00000000	      0.00000000	      0.00000000	      0.00000000	      0.00000000	      0.00000000	      0.00000000	      0.00000000	    -14.44452908	    796.45216465	    -30.53779602	     -0.81389328	     -0.00200000	      0.28967066	      0.00000000	      1.31025499	      0.00000000
      0.45400000	      0.00000000	      0.00000000	      0.00000000	      0.00000000	      0.00000000	      0.00000000	      0.00000000	      0.00000000	      0.00000000	    -13.71677220	    798.72325063	    -30.65585792	     -0.81368028	     -0.00200000	      0.28964926	      0.00000000	      1.31371264	      0.00000000
      0.45500000	      0.00000000	      0.00000000	      0.00000000	      0.00000000	      0.00000000	      0.00000000	      0.00000000	      0.00000000	      0.00000000	    -12.97928113	    801.02432519	    -30.76764345	     -0.81347062	     -0.00200000	      0.28962597	      0.00000000	      1.31863413	      0.00000000
      0.45600000	      0.00000000	      0.00000000	      0.00000000	      0.00000000	      0.00000000	      0.00000000	      0.00000000	      0.00000000	      0.00000000	    -12.23393064	    803.34946513	    -30.87439835	     -0.81326359	     -0.00200000	      0.28960120	      0.00000000	      1.32471917	      0.00000000
      0.45700000	      0.00000000	      0.00000000	      0.00000000	      0.00000000	      0.00000000	      0.00000000	      0.00000000	      0.00000000	      0.00000000	    -11.47868717	    805.70451915	    -30.97487688	     -0.81305981	     -0.00200000	      0.28957460	      0.00000000	      1.33224454	      0.00000000
      0.45800000	      0.00000000	      0.00000000	      0.00000000	      0.00000000	      0.00000000	      0.00000000	      0.00000000	      0.00000000	      0.00000000	    -10.71549300	    808.08341503	    -31.07035756	     -0.81285858	     -0.00200000	      0.28954654	      0.00000000	      1.34090733	      0.00000000
      0.45900000	      0.00000000	      0.00000000	      0.00000000	      0.00000000	      0.00000000	      0.00000000	      0.00000000	      0.00000000	      0.00000000	     -9.94233973	    810.49215049	    -31.15964830	     -0.81266048	     -0.00200000	      0.28951670	      0.00000000	      1.35096945	      0.00000000
      0.46000000	      0.00000000	      0.00000000	      0.00000000	      0.00000000	      0.00000000	      0.00000000	      0.00000000	      0.00000000	      0.00000000	     -9.16121714	    812.92457879	    -31.24404550	     -0.81246483	     -0.00200000	      0.28948543	      0.00000000	      1.36213184	      0.00000000
      0.46100000	      0.00000000	      0.00000000	      0.00000000	      0.00000000	      0.00000000	      0.00000000	      0.00000000	      0.00000000	      0.00000000	     -8.37016152	    815.38643688	    -31.32241368	     -0.81227218	     -0.00200000	      0.28945241	      0.00000000	      1.37464165	      0.00000000
      0.46200000	      0.00000000	      0.00000000	      0.00000000	      0.00000000	      0.00000000	      0.00000000	      0.00000000	      0.00000000	      0.00000000	     -7.57120084	    817.87168980	    -31.39604330	     -0.81208188	     -0.00200000	      0.28941803	      0.00000000	      1.38820437	      0.00000000
      0.46300000	      0.00000000	      0.00000000	      0.00000000	      0.00000000	      0.00000000	      0.00000000	      0.00000000	      0.00000000	      0.00000000	     -6.76243985	    820.38607448	    -31.46387041	     -0.81189446	     -0.00200000	      0.28938194	      0.00000000	      1.40304706	      0.00000000
